<svg width="102" height="13" viewBox="0 0 102 13" fill="none" xmlns="http://www.w3.org/2000/svg"><path d="M1.18066 13H0V10.6387H1.18066V9.45801H2.36133V8.27734H3.54199V7.09668H4.72266V5.90332H0V3.54199H5.90332V1.18066H8.27734V3.54199H10.6387V5.90332H8.27734V13H5.90332V9.45801H4.72266V10.6387H3.54199V11.8193H2.36133V13H1.18066ZM20.7233 9.45801H16.0007V7.09668H25.4587V9.45801H20.7233ZM30.8207 13H29.64V10.6387H30.8207V1.18066H33.182V11.8193H32.0013V13H30.8207ZM36.7367 13H34.3627V1.18066H36.7367V10.6387H37.9173V9.45801H39.098V8.27734H41.4593V10.6387H40.2787V11.8193H39.098V13H36.7367ZM51.5567 13H50.3633V11.8193H49.1827V10.6387H48.002V9.45801H46.8213V7.09668H49.1827V8.27734H50.3633V7.09668H51.5567V5.90332H52.7373V4.72266H53.918V3.54199H44.46V1.18066H56.2793V5.90332H55.0987V7.09668H53.918V8.27734H52.7373V9.45801H51.5567V10.6387H52.7373V13H51.5567ZM65.1833 13H64.0027V7.09668H59.28V4.72266H65.1833V3.54199H66.3767V2.36133H67.5573V1.18066H69.9187V3.54199H68.738V4.72266H67.5573V5.90332H66.3767V13H65.1833ZM78.8227 13H76.4613V10.6387H80.0033V7.09668H74.1V4.72266H84.7387V7.09668H82.3773V11.8193H81.1967V13H78.8227ZM79.4193 3.54199H75.2807V1.18066H83.558V3.54199H79.4193ZM94.8233 13H93.6427V8.27734H90.1007V5.90332H94.8233V4.72266H97.1973V3.54199H99.5587V5.90332H98.378V7.09668H96.0167V13H94.8233Z" fill="black"/></svg>
