<svg width="216" height="122" viewBox="0 0 216 122" fill="none" xmlns="http://www.w3.org/2000/svg" xmlns:xlink="http://www.w3.org/1999/xlink">
<rect width="216" height="122" fill="#1E40AF"/>
<g clip-path="url(#clip0_905_20)">
<rect width="206" height="112" transform="translate(5 5)" fill="#1E40AF"/>
<rect width="206" height="112" transform="translate(5 5)" fill="url(#pattern0_905_20)"/>
<rect width="37" height="35" transform="translate(5 5)" fill="#1E40AF"/>
<path d="M8.408 40V10.048H5.48V4.72H15.32V10.048H12.392V40H8.408ZM16.7413 40V4.72H20.7253V19.312H22.2613V4.72H26.2453V40H22.2613V24.64H20.7253V40H16.7413ZM28.1788 40V4.72H36.1468V10.048H32.1628V19.552H35.2828V24.736H32.1628V34.672H36.1468V40H28.1788Z" fill="#FDE047"/>
<rect width="210" height="77" transform="translate(5 40)" fill="#1E40AF"/>
<path d="M5.92 116V45.44H21.856V56.096H13.888V75.104H20.128V85.472H13.888V105.344H21.856V116H5.92ZM33.8613 116.768C31.7493 116.768 30.0373 116.176 28.7253 114.992C27.4453 113.776 26.4533 112.176 25.7493 110.192C25.0773 108.208 24.6133 106.016 24.3573 103.616C24.1013 101.184 23.9733 98.752 23.9733 96.32L31.7493 95.168C31.7493 95.712 31.7653 96.64 31.7973 97.952C31.8293 99.232 31.9093 100.592 32.0373 102.032C32.1653 103.472 32.3733 104.704 32.6613 105.728C32.9493 106.752 33.3493 107.264 33.8613 107.264C34.5973 107.264 35.0453 106.688 35.2053 105.536C35.3973 104.384 35.4933 102.688 35.4933 100.448C35.4933 97.696 35.1093 94.88 34.3413 92C33.5733 89.088 32.1973 85.664 30.2133 81.728C29.2533 79.776 28.3413 77.584 27.4773 75.152C26.6133 72.72 25.9093 70.288 25.3652 67.856C24.8213 65.392 24.5493 63.168 24.5493 61.184C24.5493 59.392 24.6773 57.536 24.9333 55.616C25.1893 53.696 25.6373 51.92 26.2773 50.288C26.9493 48.624 27.8773 47.28 29.0613 46.256C30.2773 45.2 31.8453 44.672 33.7653 44.672C36.0693 44.672 37.8613 45.232 39.1413 46.352C40.4533 47.44 41.4133 48.896 42.0213 50.72C42.6293 52.544 42.9973 54.56 43.1253 56.768C43.2853 58.944 43.3653 61.12 43.3653 63.296L35.4933 64.448C35.4933 63.808 35.4773 62.928 35.4453 61.808C35.4453 60.688 35.3973 59.552 35.3013 58.4C35.2053 57.216 35.0453 56.224 34.8213 55.424C34.6293 54.592 34.3413 54.176 33.9573 54.176C33.3813 54.176 33.0133 54.832 32.8533 56.144C32.6933 57.424 32.6133 59.104 32.6133 61.184C32.6133 63.488 32.9973 65.984 33.7653 68.672C34.5333 71.328 35.7173 74.368 37.3173 77.792C39.3013 81.952 40.8373 85.728 41.9253 89.12C43.0133 92.48 43.5573 95.936 43.5573 99.488C43.5573 101.152 43.4293 102.992 43.1733 105.008C42.9493 106.992 42.4853 108.88 41.7813 110.672C41.1093 112.432 40.1333 113.888 38.8533 115.04C37.6053 116.192 35.9413 116.768 33.8613 116.768ZM56.5488 116.768C54.4368 116.768 52.7248 116.176 51.4128 114.992C50.1328 113.776 49.1408 112.176 48.4368 110.192C47.7648 108.208 47.3008 106.016 47.0448 103.616C46.7888 101.184 46.6608 98.752 46.6608 96.32L54.4368 95.168C54.4368 95.712 54.4528 96.64 54.4848 97.952C54.5168 99.232 54.5968 100.592 54.7248 102.032C54.8528 103.472 55.0608 104.704 55.3488 105.728C55.6368 106.752 56.0368 107.264 56.5488 107.264C57.2848 107.264 57.7328 106.688 57.8928 105.536C58.0848 104.384 58.1808 102.688 58.1808 100.448C58.1808 97.696 57.7968 94.88 57.0288 92C56.2608 89.088 54.8848 85.664 52.9008 81.728C51.9408 79.776 51.0288 77.584 50.1648 75.152C49.3008 72.72 48.5968 70.288 48.0527 67.856C47.5088 65.392 47.2368 63.168 47.2368 61.184C47.2368 59.392 47.3648 57.536 47.6208 55.616C47.8768 53.696 48.3248 51.92 48.9648 50.288C49.6368 48.624 50.5648 47.28 51.7488 46.256C52.9648 45.2 54.5328 44.672 56.4528 44.672C58.7568 44.672 60.5488 45.232 61.8288 46.352C63.1408 47.44 64.1008 48.896 64.7088 50.72C65.3168 52.544 65.6848 54.56 65.8128 56.768C65.9728 58.944 66.0528 61.12 66.0528 63.296L58.1808 64.448C58.1808 63.808 58.1648 62.928 58.1328 61.808C58.1328 60.688 58.0848 59.552 57.9888 58.4C57.8928 57.216 57.7328 56.224 57.5088 55.424C57.3168 54.592 57.0288 54.176 56.6448 54.176C56.0688 54.176 55.7008 54.832 55.5408 56.144C55.3808 57.424 55.3008 59.104 55.3008 61.184C55.3008 63.488 55.6848 65.984 56.4528 68.672C57.2208 71.328 58.4048 74.368 60.0048 77.792C61.9888 81.952 63.5248 85.728 64.6128 89.12C65.7008 92.48 66.2448 95.936 66.2448 99.488C66.2448 101.152 66.1168 102.992 65.8608 105.008C65.6368 106.992 65.1728 108.88 64.4688 110.672C63.7968 112.432 62.8208 113.888 61.5408 115.04C60.2928 116.192 58.6288 116.768 56.5488 116.768ZM71.0763 116V45.44H87.0123V56.096H79.0443V75.104H85.2843V85.472H79.0443V105.344H87.0123V116H71.0763ZM90.8575 116V45.44H98.0575L102.714 75.968L103.194 80.192H103.338V45.44H110.73V116H104.01L98.9215 85.76L98.3935 80.288H98.2495V116H90.8575ZM119.472 116V56.096H113.616V45.44H133.296V56.096H127.44V116H119.472ZM136.139 116V45.44H144.107V116H136.139ZM146.991 116L153.903 45.44H163.215L170.031 116H161.775L160.719 101.6H156.303L155.247 116H146.991ZM156.927 91.712H160.191L158.607 64.112V62.624H158.415V64.112L156.927 91.712ZM172.889 116V45.44H180.857V106.4H189.113V116H172.889ZM201.393 116.768C199.281 116.768 197.569 116.176 196.257 114.992C194.977 113.776 193.985 112.176 193.281 110.192C192.609 108.208 192.145 106.016 191.889 103.616C191.633 101.184 191.505 98.752 191.505 96.32L199.281 95.168C199.281 95.712 199.297 96.64 199.329 97.952C199.361 99.232 199.441 100.592 199.569 102.032C199.697 103.472 199.905 104.704 200.193 105.728C200.481 106.752 200.881 107.264 201.393 107.264C202.129 107.264 202.577 106.688 202.737 105.536C202.929 104.384 203.025 102.688 203.025 100.448C203.025 97.696 202.641 94.88 201.873 92C201.105 89.088 199.729 85.664 197.745 81.728C196.785 79.776 195.873 77.584 195.009 75.152C194.145 72.72 193.441 70.288 192.896 67.856C192.353 65.392 192.081 63.168 192.081 61.184C192.081 59.392 192.209 57.536 192.465 55.616C192.721 53.696 193.169 51.92 193.809 50.288C194.481 48.624 195.409 47.28 196.593 46.256C197.809 45.2 199.377 44.672 201.297 44.672C203.601 44.672 205.393 45.232 206.673 46.352C207.985 47.44 208.945 48.896 209.553 50.72C210.161 52.544 210.529 54.56 210.657 56.768C210.817 58.944 210.897 61.12 210.897 63.296L203.025 64.448C203.025 63.808 203.009 62.928 202.977 61.808C202.977 60.688 202.929 59.552 202.833 58.4C202.737 57.216 202.577 56.224 202.353 55.424C202.161 54.592 201.873 54.176 201.489 54.176C200.913 54.176 200.545 54.832 200.385 56.144C200.225 57.424 200.145 59.104 200.145 61.184C200.145 63.488 200.529 65.984 201.297 68.672C202.065 71.328 203.249 74.368 204.849 77.792C206.833 81.952 208.369 85.728 209.457 89.12C210.545 92.48 211.089 95.936 211.089 99.488C211.089 101.152 210.961 102.992 210.705 105.008C210.481 106.992 210.017 108.88 209.313 110.672C208.641 112.432 207.665 113.888 206.385 115.04C205.137 116.192 203.473 116.768 201.393 116.768Z" fill="#FDE047"/>
</g>
<defs>
<clipPath id="clip0_905_20">
<rect width="206" height="112" fill="white" transform="translate(5 5)"/>
</clipPath>
<pattern id="pattern0_905_20" patternUnits="userSpaceOnUse" patternTransform="matrix(23.95 0 0 60.0194 1.37449 0)" preserveAspectRatio="none" viewBox="13.7449 0 239.5 600.194" width="1" height="1">
<use xlink:href="#pattern0_905_20_inner" transform="translate(-239.5 0)"/>
<g id="pattern0_905_20_inner">
<path d="M313.842 0H479L178.903 600.194H13.7449L313.842 0Z" fill="#FDE047"/>
</g>
</pattern></defs>
</svg>
